<svg width="500" height="500" viewBox="0 0 500 500" fill="none" xmlns="http://www.w3.org/2000/svg">
<path d="M251 273.01V376.095C261.769 373.346 283.138 372.237 305.494 373.485C327.851 374.733 359.989 372.237 376.756 373.485C415.574 376.374 438.004 372.819 450.812 377.507C442.429 343.911 419.373 285.902 415.181 281.214C410.182 275.623 359.29 279.651 315.275 273.01C280.064 267.697 257.754 270.796 251 273.01Z" fill="#F8F8F8" stroke="#7C6F7C" stroke-width="5" stroke-linejoin="round"/>
<path d="M251 272.752V372.335C261.769 369.586 283.138 366.674 305.494 367.922C327.851 369.17 359.989 366.674 376.756 367.922C415.574 370.811 438.004 367.256 450.812 371.944C442.429 338.348 419.373 280.339 415.181 275.651C410.182 270.061 359.29 274.089 315.275 267.447C280.064 262.134 257.754 270.539 251 272.752Z" fill="#F8F8F8" stroke="#7C6F7C" stroke-width="5" stroke-linejoin="round"/>
<path d="M251 270.752V371.252C261.769 368.503 283.138 359.912 305.494 361.16C327.851 362.408 359.989 359.912 376.756 361.16C415.574 364.049 435.511 356.252 449.511 352.252C441.127 318.656 419.597 261.451 414.511 257.752C409.011 253.752 359.29 267.327 315.275 260.686C280.064 255.373 257.754 268.539 251 270.752Z" fill="#F8F8F8" stroke="#7C6F7C" stroke-width="5" stroke-linejoin="round"/>
<path d="M249.511 273.01V376.095C238.742 373.346 217.373 372.237 195.017 373.485C172.66 374.733 140.522 372.237 123.755 373.485C84.9373 376.374 62.5071 372.819 49.6986 377.507C58.0824 343.911 81.1376 285.902 85.3295 281.214C90.3286 275.623 141.221 279.651 185.236 273.01C220.447 267.697 242.757 270.796 249.511 273.01Z" fill="#F8F8F8" stroke="#7C6F7C" stroke-width="5" stroke-linejoin="round"/>
<path d="M249.511 272.752V372.335C238.742 369.586 217.373 366.674 195.017 367.922C172.66 369.17 140.522 366.674 123.755 367.922C84.9373 370.811 62.5071 367.256 49.6986 371.944C58.0824 338.348 81.1376 280.339 85.3295 275.651C90.3286 270.061 141.221 274.089 185.236 267.447C220.447 262.134 242.757 270.539 249.511 272.752Z" fill="#F8F8F8" stroke="#7C6F7C" stroke-width="5" stroke-linejoin="round"/>
<path d="M249.511 270.752V371.252C238.742 368.503 217.373 359.912 195.017 361.16C172.66 362.408 140.522 359.912 123.755 361.16C84.9373 364.049 65 356.252 51 352.252C59.3837 318.656 80.9141 261.451 86 257.752C91.5 253.752 141.221 267.327 185.236 260.686C220.447 255.373 242.757 268.539 249.511 270.752Z" fill="#F8F8F8" stroke="#7C6F7C" stroke-width="5" stroke-linejoin="round"/>
<mask id="path-7-outside-1_1_35" maskUnits="userSpaceOnUse" x="106" y="128" width="288" height="200" fill="black">
<rect fill="white" x="106" y="128" width="288" height="200"/>
<path d="M121.3 312.8V143.6H171.7V164.3H143.8V292.1H171.7V312.8H121.3ZM205.29 293V194H223.65V207.32H227.43L224.37 210.56C224.37 205.04 225.93 200.6 229.05 197.24C232.17 193.88 236.19 192.2 241.11 192.2C246.39 192.2 250.47 194.36 253.35 198.68C256.35 203 257.85 208.82 257.85 216.14L253.89 207.32H260.01L257.67 210.56C257.67 205.04 259.23 200.6 262.35 197.24C265.47 193.88 269.61 192.2 274.77 192.2C280.89 192.2 285.75 194.48 289.35 199.04C292.95 203.6 294.75 209.78 294.75 217.58V293H274.95V218.48C274.95 215.24 274.23 212.72 272.79 210.92C271.35 209 269.25 208.04 266.49 208.04C263.85 208.04 261.75 208.94 260.19 210.74C258.75 212.54 258.03 215.12 258.03 218.48V293H241.83V218.48C241.83 215.12 241.11 212.54 239.67 210.74C238.23 208.94 236.13 208.04 233.37 208.04C230.61 208.04 228.51 208.94 227.07 210.74C225.75 212.54 225.09 215.12 225.09 218.48V293H205.29ZM328.159 312.8V292.1H356.059V164.3H328.159V143.6H378.559V312.8H328.159Z"/>
</mask>
<path d="M121.3 312.8V143.6H171.7V164.3H143.8V292.1H171.7V312.8H121.3ZM205.29 293V194H223.65V207.32H227.43L224.37 210.56C224.37 205.04 225.93 200.6 229.05 197.24C232.17 193.88 236.19 192.2 241.11 192.2C246.39 192.2 250.47 194.36 253.35 198.68C256.35 203 257.85 208.82 257.85 216.14L253.89 207.32H260.01L257.67 210.56C257.67 205.04 259.23 200.6 262.35 197.24C265.47 193.88 269.61 192.2 274.77 192.2C280.89 192.2 285.75 194.48 289.35 199.04C292.95 203.6 294.75 209.78 294.75 217.58V293H274.95V218.48C274.95 215.24 274.23 212.72 272.79 210.92C271.35 209 269.25 208.04 266.49 208.04C263.85 208.04 261.75 208.94 260.19 210.74C258.75 212.54 258.03 215.12 258.03 218.48V293H241.83V218.48C241.83 215.12 241.11 212.54 239.67 210.74C238.23 208.94 236.13 208.04 233.37 208.04C230.61 208.04 228.51 208.94 227.07 210.74C225.75 212.54 225.09 215.12 225.09 218.48V293H205.29ZM328.159 312.8V292.1H356.059V164.3H328.159V143.6H378.559V312.8H328.159Z" fill="url(#paint0_linear_1_35)"/>
<path d="M121.3 312.8H106.3V327.8H121.3V312.8ZM121.3 143.6V128.6H106.3V143.6H121.3ZM171.7 143.6H186.7V128.6H171.7V143.6ZM171.7 164.3V179.3H186.7V164.3H171.7ZM143.8 164.3V149.3H128.8V164.3H143.8ZM143.8 292.1H128.8V307.1H143.8V292.1ZM171.7 292.1H186.7V277.1H171.7V292.1ZM171.7 312.8V327.8H186.7V312.8H171.7ZM136.3 312.8V143.6H106.3V312.8H136.3ZM121.3 158.6H171.7V128.6H121.3V158.6ZM156.7 143.6V164.3H186.7V143.6H156.7ZM171.7 149.3H143.8V179.3H171.7V149.3ZM128.8 164.3V292.1H158.8V164.3H128.8ZM143.8 307.1H171.7V277.1H143.8V307.1ZM156.7 292.1V312.8H186.7V292.1H156.7ZM171.7 297.8H121.3V327.8H171.7V297.8ZM205.29 293H190.29V308H205.29V293ZM205.29 194V179H190.29V194H205.29ZM223.65 194H238.65V179H223.65V194ZM223.65 207.32H208.65V222.32H223.65V207.32ZM227.43 207.32L238.335 217.619L262.229 192.32H227.43V207.32ZM224.37 210.56H209.37V248.288L235.275 220.859L224.37 210.56ZM229.05 197.24L240.042 207.447L240.042 207.447L229.05 197.24ZM253.35 198.68L240.869 207L240.948 207.119L241.029 207.236L253.35 198.68ZM257.85 216.14L244.166 222.284L272.85 216.14H257.85ZM253.89 207.32V192.32H230.712L240.206 213.464L253.89 207.32ZM260.01 207.32L272.17 216.102L289.346 192.32H260.01V207.32ZM257.67 210.56H242.67V256.949L269.83 219.342L257.67 210.56ZM289.35 199.04L301.123 189.745L301.123 189.745L289.35 199.04ZM294.75 293V308H309.75V293H294.75ZM274.95 293H259.95V308H274.95V293ZM272.79 210.92L260.79 219.92L260.93 220.107L261.077 220.29L272.79 210.92ZM260.19 210.74L248.854 200.916L248.661 201.139L248.477 201.37L260.19 210.74ZM258.03 293V308H273.03V293H258.03ZM241.83 293H226.83V308H241.83V293ZM239.67 210.74L227.957 220.11L227.957 220.11L239.67 210.74ZM227.07 210.74L215.357 201.37L215.16 201.616L214.974 201.87L227.07 210.74ZM225.09 293V308H240.09V293H225.09ZM220.29 293V194H190.29V293H220.29ZM205.29 209H223.65V179H205.29V209ZM208.65 194V207.32H238.65V194H208.65ZM223.65 222.32H227.43V192.32H223.65V222.32ZM216.525 197.021L213.464 200.261L235.275 220.859L238.335 217.619L216.525 197.021ZM239.37 210.56C239.37 208.01 240.004 207.487 240.042 207.447L218.058 187.033C211.855 193.713 209.37 202.07 209.37 210.56H239.37ZM240.042 207.447C240.149 207.331 240.206 207.291 240.209 207.29C240.212 207.287 240.209 207.289 240.202 207.293C240.199 207.295 240.196 207.297 240.193 207.298C240.19 207.299 240.189 207.3 240.189 207.3C240.189 207.3 240.191 207.299 240.196 207.297C240.201 207.295 240.21 207.292 240.223 207.289C240.247 207.281 240.292 207.27 240.359 207.257C240.492 207.232 240.734 207.2 241.11 207.2V177.2C232.36 177.2 224.24 180.375 218.058 187.033L240.042 207.447ZM241.11 207.2C241.405 207.2 241.511 207.23 241.472 207.221C241.453 207.217 241.407 207.205 241.34 207.18C241.272 207.155 241.194 207.121 241.111 207.077C241.028 207.033 240.952 206.985 240.885 206.937C240.818 206.89 240.771 206.849 240.743 206.823C240.685 206.769 240.737 206.803 240.869 207L265.83 190.359C260.112 181.782 251.303 177.2 241.11 177.2V207.2ZM241.029 207.236C241.722 208.234 242.85 210.717 242.85 216.14H272.85C272.85 206.923 270.977 197.766 265.67 190.124L241.029 207.236ZM271.534 209.996L267.574 201.176L240.206 213.464L244.166 222.284L271.534 209.996ZM253.89 222.32H260.01V192.32H253.89V222.32ZM247.849 198.538L245.51 201.778L269.83 219.342L272.17 216.102L247.849 198.538ZM272.67 210.56C272.67 208.01 273.304 207.487 273.342 207.447L251.358 187.033C245.155 193.713 242.67 202.07 242.67 210.56H272.67ZM273.342 207.447C273.415 207.368 273.447 207.349 273.435 207.357C273.422 207.366 273.415 207.367 273.435 207.359C273.458 207.35 273.827 207.2 274.77 207.2V177.2C266.016 177.2 257.686 180.218 251.358 187.033L273.342 207.447ZM274.77 207.2C275.936 207.2 276.459 207.408 276.634 207.49C276.785 207.561 277.099 207.73 277.576 208.335L301.123 189.745C294.507 181.365 285.197 177.2 274.77 177.2V207.2ZM277.576 208.335C278.47 209.466 279.75 212.001 279.75 217.58H309.75C309.75 207.559 307.429 197.734 301.123 189.745L277.576 208.335ZM279.75 217.58V293H309.75V217.58H279.75ZM294.75 278H274.95V308H294.75V278ZM289.95 293V218.48H259.95V293H289.95ZM289.95 218.48C289.95 213.191 288.786 206.904 284.503 201.55L261.077 220.29C260.396 219.439 260.099 218.672 259.987 218.281C259.886 217.929 259.95 217.939 259.95 218.48H289.95ZM284.79 201.92C280.065 195.621 273.164 193.04 266.49 193.04V223.04C266.132 223.04 265.15 222.974 263.898 222.402C262.578 221.799 261.512 220.882 260.79 219.92L284.79 201.92ZM266.49 193.04C260.028 193.04 253.593 195.449 248.854 200.916L271.525 220.564C270.884 221.303 269.968 222.02 268.843 222.502C267.759 222.967 266.888 223.04 266.49 223.04V193.04ZM248.477 201.37C244.126 206.808 243.03 213.224 243.03 218.48H273.03C273.03 217.833 273.103 217.751 273.018 218.057C272.922 218.401 272.632 219.199 271.903 220.11L248.477 201.37ZM243.03 218.48V293H273.03V218.48H243.03ZM258.03 278H241.83V308H258.03V278ZM256.83 293V218.48H226.83V293H256.83ZM256.83 218.48C256.83 213.224 255.733 206.808 251.383 201.37L227.957 220.11C227.227 219.199 226.938 218.401 226.842 218.057C226.756 217.751 226.83 217.833 226.83 218.48H256.83ZM251.383 201.37C246.525 195.298 239.687 193.04 233.37 193.04V223.04C233.132 223.04 232.269 223.001 231.106 222.502C229.866 221.971 228.764 221.12 227.957 220.11L251.383 201.37ZM233.37 193.04C227.053 193.04 220.214 195.298 215.357 201.37L238.783 220.11C237.975 221.12 236.873 221.971 235.633 222.502C234.471 223.001 233.608 223.04 233.37 223.04V193.04ZM214.974 201.87C211.03 207.248 210.09 213.456 210.09 218.48H240.09C240.09 217.743 240.166 217.55 240.117 217.742C240.061 217.959 239.836 218.697 239.166 219.61L214.974 201.87ZM210.09 218.48V293H240.09V218.48H210.09ZM225.09 278H205.29V308H225.09V278ZM328.159 312.8H313.159V327.8H328.159V312.8ZM328.159 292.1V277.1H313.159V292.1H328.159ZM356.059 292.1V307.1H371.059V292.1H356.059ZM356.059 164.3H371.059V149.3H356.059V164.3ZM328.159 164.3H313.159V179.3H328.159V164.3ZM328.159 143.6V128.6H313.159V143.6H328.159ZM378.559 143.6H393.559V128.6H378.559V143.6ZM378.559 312.8V327.8H393.559V312.8H378.559ZM343.159 312.8V292.1H313.159V312.8H343.159ZM328.159 307.1H356.059V277.1H328.159V307.1ZM371.059 292.1V164.3H341.059V292.1H371.059ZM356.059 149.3H328.159V179.3H356.059V149.3ZM343.159 164.3V143.6H313.159V164.3H343.159ZM328.159 158.6H378.559V128.6H328.159V158.6ZM363.559 143.6V312.8H393.559V143.6H363.559ZM378.559 297.8H328.159V327.8H378.559V297.8Z" fill="#F8F8F8" mask="url(#path-7-outside-1_1_35)"/>
<defs>
<linearGradient id="paint0_linear_1_35" x1="88" y1="109" x2="412" y2="347" gradientUnits="userSpaceOnUse">
<stop stop-color="#5C61E0"/>
<stop offset="1" stop-color="#DB0DDF"/>
</linearGradient>
</defs>
</svg>
